<?xml version="1.0" encoding="UTF-8" standalone="no"?>
<!-- Created with Inkscape (http://www.inkscape.org/) -->

<svg
   xmlns:dc="http://purl.org/dc/elements/1.1/"
   xmlns:cc="http://creativecommons.org/ns#"
   xmlns:rdf="http://www.w3.org/1999/02/22-rdf-syntax-ns#"
   xmlns:svg="http://www.w3.org/2000/svg"
   xmlns="http://www.w3.org/2000/svg"
   xmlns:sodipodi="http://sodipodi.sourceforge.net/DTD/sodipodi-0.dtd"
   xmlns:inkscape="http://www.inkscape.org/namespaces/inkscape"
   width="210mm"
   height="297mm"
   viewBox="0 0 744.09448819 1052.3622047"
   id="svg2"
   version="1.1"
   inkscape:version="0.91 r13725"
   sodipodi:docname="EsusBotChassis_V1.svg">
  <defs
     id="defs4" />
  <sodipodi:namedview
     id="base"
     pagecolor="#ffffff"
     bordercolor="#666666"
     borderopacity="1.0"
     inkscape:pageopacity="0.0"
     inkscape:pageshadow="2"
     inkscape:zoom="1.4"
     inkscape:cx="311.35647"
     inkscape:cy="699.80318"
     inkscape:document-units="mm"
     inkscape:current-layer="layer1"
     showgrid="true"
     inkscape:window-width="1366"
     inkscape:window-height="749"
     inkscape:window-x="-4"
     inkscape:window-y="-4"
     inkscape:window-maximized="1">
    <inkscape:grid
       type="xygrid"
       id="grid4165"
       units="mm"
       spacingx="3.5433071"
       spacingy="3.5433072" />
  </sodipodi:namedview>
  <metadata
     id="metadata7">
    <rdf:RDF>
      <cc:Work
         rdf:about="">
        <dc:format>image/svg+xml</dc:format>
        <dc:type
           rdf:resource="http://purl.org/dc/dcmitype/StillImage" />
        <dc:title></dc:title>
      </cc:Work>
    </rdf:RDF>
  </metadata>
  <g
     inkscape:label="Calque 1"
     inkscape:groupmode="layer"
     id="layer1">
    <path
       style="color:#000000;font-style:normal;font-variant:normal;font-weight:normal;font-stretch:normal;font-size:medium;line-height:normal;font-family:sans-serif;text-indent:0;text-align:start;text-decoration:none;text-decoration-line:none;text-decoration-style:solid;text-decoration-color:#000000;letter-spacing:normal;word-spacing:normal;text-transform:none;direction:ltr;block-progression:tb;writing-mode:lr-tb;baseline-shift:baseline;text-anchor:start;white-space:normal;clip-rule:nonzero;display:inline;overflow:visible;visibility:visible;opacity:1;isolation:auto;mix-blend-mode:normal;color-interpolation:sRGB;color-interpolation-filters:linearRGB;solid-color:#000000;solid-opacity:1;fill:#ff0000;fill-opacity:1;fill-rule:nonzero;stroke:#00ff00;stroke-width:0;stroke-linecap:butt;stroke-linejoin:miter;stroke-miterlimit:4;stroke-dasharray:none;stroke-dashoffset:0;stroke-opacity:1;color-rendering:auto;image-rendering:auto;shape-rendering:auto;text-rendering:auto;enable-background:accumulate"
       d="m 60.058594,59.6875 0,0.177734 0,0.177735 0,393.306641 393.662106,0 0,-393.66211 -393.662106,0 z m 0.708984,0.708984 392.244142,0 0,392.244136 -392.244142,0 0,-392.244136 z"
       id="rect4136"
       inkscape:connector-curvature="0" />
    <path
       style="opacity:1;fill:none;fill-opacity:0;stroke:#00ff00;stroke-width:0.35433071;stroke-linejoin:miter;stroke-miterlimit:4;stroke-dasharray:none;stroke-opacity:1"
       d="m 110.16798,414.07086 a 3.6916034,3.6916034 0 0 1 -3.6916,3.69161 3.6916034,3.6916034 0 0 1 -3.6916,-3.69161 3.6916034,3.6916034 0 0 1 3.6916,-3.6916 3.6916034,3.6916034 0 0 1 3.6916,3.6916 z"
       id="path4148" />
    <path
       style="opacity:1;fill:none;fill-opacity:0;stroke:#00ff00;stroke-width:0.35433071;stroke-linejoin:miter;stroke-miterlimit:4;stroke-dasharray:none;stroke-opacity:1"
       d="m 110.16798,350.29133 a 3.6916034,3.6916034 0 0 1 -3.6916,3.69161 3.6916034,3.6916034 0 0 1 -3.6916,-3.69161 3.6916034,3.6916034 0 0 1 3.6916,-3.6916 3.6916034,3.6916034 0 0 1 3.6916,3.6916 z"
       id="path4148-4"
       inkscape:connector-curvature="0" />
    <path
       style="opacity:1;fill:none;fill-opacity:0;stroke:#00ff00;stroke-width:0.35433071;stroke-linejoin:miter;stroke-miterlimit:4;stroke-dasharray:none;stroke-opacity:1"
       d="m 410.99477,414.07086 a 3.6916034,3.6916034 0 0 1 -3.69161,3.69161 3.6916034,3.6916034 0 0 1 -3.6916,-3.69161 3.6916034,3.6916034 0 0 1 3.6916,-3.6916 3.6916034,3.6916034 0 0 1 3.69161,3.6916 z"
       id="path4148-5" />
    <path
       style="opacity:1;fill:none;fill-opacity:0;stroke:#00ff00;stroke-width:0.35433071;stroke-linejoin:miter;stroke-miterlimit:4;stroke-dasharray:none;stroke-opacity:1"
       d="m 411.34907,350.29133 a 3.6916034,3.6916034 0 0 1 -3.6916,3.69161 3.6916034,3.6916034 0 0 1 -3.6916,-3.69161 3.6916034,3.6916034 0 0 1 3.6916,-3.6916 3.6916034,3.6916034 0 0 1 3.6916,3.6916 z"
       id="path4148-4-3"
       inkscape:connector-curvature="0" />
    <path
       style="opacity:1;fill:none;fill-opacity:0;stroke:#00ff00;stroke-width:0.35433071;stroke-linejoin:miter;stroke-miterlimit:4;stroke-dasharray:none;stroke-opacity:1"
       d="m 182.46184,413.30905 a 4.23349,4.23349 0 0 1 -4.23349,4.23349 4.23349,4.23349 0 0 1 -4.23349,-4.23349 4.23349,4.23349 0 0 1 4.23349,-4.23349 4.23349,4.23349 0 0 1 4.23349,4.23349 z"
       id="path4148-4-39" />
    <path
       style="opacity:1;fill:none;fill-opacity:0;stroke:#00ff00;stroke-width:0.35433071;stroke-linejoin:miter;stroke-miterlimit:4;stroke-dasharray:none;stroke-opacity:1"
       d="m 182.46184,151.10433 a 4.23349,4.23349 0 0 1 -4.23349,4.23349 4.23349,4.23349 0 0 1 -4.23349,-4.23349 4.23349,4.23349 0 0 1 4.23349,-4.23349 4.23349,4.23349 0 0 1 4.23349,4.23349 z"
       id="path4148-4-39-2"
       inkscape:connector-curvature="0" />
    <path
       style="opacity:1;fill:none;fill-opacity:0;stroke:#00ff00;stroke-width:0.35433071;stroke-linejoin:miter;stroke-miterlimit:4;stroke-dasharray:none;stroke-opacity:1"
       d="m 338.36734,151.10433 a 4.23349,4.23349 0 0 1 -4.23349,4.23349 4.23349,4.23349 0 0 1 -4.23349,-4.23349 4.23349,4.23349 0 0 1 4.23349,-4.23349 4.23349,4.23349 0 0 1 4.23349,4.23349 z"
       id="path4148-4-39-5-7"
       inkscape:connector-curvature="0" />
    <path
       style="opacity:1;fill:none;fill-opacity:0;stroke:#00ff00;stroke-width:0.35433071;stroke-linejoin:miter;stroke-miterlimit:4;stroke-dasharray:none;stroke-opacity:1"
       d="m 338.36734,413.30905 a 4.23349,4.23349 0 0 1 -4.23349,4.23349 4.23349,4.23349 0 0 1 -4.23349,-4.23349 4.23349,4.23349 0 0 1 4.23349,-4.23349 4.23349,4.23349 0 0 1 4.23349,4.23349 z"
       id="path4148-4-39-1" />
    <path
       style="opacity:1;fill:none;fill-opacity:0;stroke:#00ff00;stroke-width:0.35433071;stroke-linejoin:miter;stroke-miterlimit:4;stroke-dasharray:none;stroke-opacity:1"
       d="m 82.186249,77.580711 a 4.23349,4.23349 0 0 1 -4.23349,4.23349 4.23349,4.23349 0 0 1 -4.23349,-4.23349 4.23349,4.23349 0 0 1 4.23349,-4.23349 4.23349,4.23349 0 0 1 4.23349,4.23349 z"
       id="path4148-4-39-5" />
    <path
       style="opacity:1;fill:none;fill-opacity:0;stroke:#00ff00;stroke-width:0.35433071;stroke-linejoin:miter;stroke-miterlimit:4;stroke-dasharray:none;stroke-opacity:1"
       d="m 440.06027,77.580711 a 4.23349,4.23349 0 0 1 -4.23349,4.23349 4.23349,4.23349 0 0 1 -4.23349,-4.23349 4.23349,4.23349 0 0 1 4.23349,-4.23349 4.23349,4.23349 0 0 1 4.23349,4.23349 z"
       id="path4148-4-39-5-3" />
    <path
       style="opacity:1;fill:none;fill-opacity:0;stroke:#00ff00;stroke-width:0.35433071;stroke-linejoin:miter;stroke-miterlimit:4;stroke-dasharray:none;stroke-opacity:1"
       d="m 82.186249,442.54134 a 4.23349,4.23349 0 0 1 -4.23349,4.23349 4.23349,4.23349 0 0 1 -4.23349,-4.23349 4.23349,4.23349 0 0 1 4.23349,-4.23349 4.23349,4.23349 0 0 1 4.23349,4.23349 z"
       id="path4148-4-39-5-9"
       inkscape:connector-curvature="0" />
    <path
       style="opacity:1;fill:none;fill-opacity:0;stroke:#00ff00;stroke-width:0.35433071;stroke-linejoin:miter;stroke-miterlimit:4;stroke-dasharray:none;stroke-opacity:1"
       d="m 440.06027,442.54134 a 4.23349,4.23349 0 0 1 -4.23349,4.23349 4.23349,4.23349 0 0 1 -4.23349,-4.23349 4.23349,4.23349 0 0 1 4.23349,-4.23349 4.23349,4.23349 0 0 1 4.23349,4.23349 z"
       id="path4148-4-39-5-9-9"
       inkscape:connector-curvature="0" />
    <path
       style="opacity:1;fill:none;fill-opacity:1;stroke:#00ff00;stroke-width:0.47326803;stroke-linejoin:miter;stroke-miterlimit:4;stroke-dasharray:none;stroke-opacity:1"
       d="m 478.13272,78.906494 72.30038,0 c 9.28658,0 16.76278,7.476203 16.76278,16.762787 l 0,72.300369 c 0,9.28658 -7.4762,16.76279 -16.76278,16.76279 l -72.30038,0 c -9.28658,0 -16.76279,-7.47621 -16.76279,-16.76279 l 0,-72.300369 c 0,-9.286584 7.47621,-16.762787 16.76279,-16.762787 z"
       id="rect4158" />
  </g>
</svg>
